%TF.GenerationSoftware,KiCad,Pcbnew,(6.0.0)*%
%TF.CreationDate,2022-01-13T23:18:41+01:00*%
%TF.ProjectId,pi-1w-shield,70692d31-772d-4736-9869-656c642e6b69,1.0*%
%TF.SameCoordinates,Original*%
%TF.FileFunction,Soldermask,Bot*%
%TF.FilePolarity,Negative*%
%FSLAX46Y46*%
G04 Gerber Fmt 4.6, Leading zero omitted, Abs format (unit mm)*
G04 Created by KiCad (PCBNEW (6.0.0)) date 2022-01-13 23:18:41*
%MOMM*%
%LPD*%
G01*
G04 APERTURE LIST*
%ADD10C,1.600000*%
%ADD11O,1.600000X1.600000*%
%ADD12R,1.600000X1.600000*%
%ADD13R,2.600000X2.600000*%
%ADD14C,2.600000*%
%ADD15R,1.700000X1.700000*%
%ADD16O,1.700000X1.700000*%
G04 APERTURE END LIST*
D10*
%TO.C,R5*%
X156865000Y-100300000D03*
D11*
X167025000Y-100300000D03*
%TD*%
D10*
%TO.C,R2*%
X156865000Y-77440000D03*
D11*
X167025000Y-77440000D03*
%TD*%
D10*
%TO.C,R4*%
X156865000Y-92680000D03*
D11*
X167025000Y-92680000D03*
%TD*%
D10*
%TO.C,R1*%
X156865000Y-71090000D03*
D11*
X167025000Y-71090000D03*
%TD*%
D10*
%TO.C,R6*%
X156865000Y-107920000D03*
D11*
X167025000Y-107920000D03*
%TD*%
D12*
%TO.C,C2*%
X163850000Y-64652380D03*
D10*
X163850000Y-62152380D03*
%TD*%
D12*
%TO.C,C1*%
X174645000Y-55850000D03*
D10*
X172145000Y-55850000D03*
%TD*%
D13*
%TO.C,J2*%
X149860000Y-86360000D03*
D14*
X149860000Y-91440000D03*
X149860000Y-96520000D03*
X149860000Y-101600000D03*
X149860000Y-106680000D03*
X149860000Y-111760000D03*
%TD*%
D13*
%TO.C,J3*%
X149860000Y-54610000D03*
D14*
X149860000Y-59690000D03*
X149860000Y-64770000D03*
X149860000Y-69850000D03*
X149860000Y-74930000D03*
X149860000Y-80010000D03*
%TD*%
D13*
%TO.C,J1*%
X173990000Y-44145000D03*
D14*
X168910000Y-44145000D03*
X163830000Y-44145000D03*
X158750000Y-44145000D03*
X153670000Y-44145000D03*
X148590000Y-44145000D03*
%TD*%
D10*
%TO.C,R3*%
X156865000Y-85060000D03*
D11*
X167025000Y-85060000D03*
%TD*%
D15*
%TO.C,J4*%
X172085000Y-64770000D03*
D16*
X174625000Y-64770000D03*
X172085000Y-67310000D03*
X174625000Y-67310000D03*
X172085000Y-69850000D03*
X174625000Y-69850000D03*
X172085000Y-72390000D03*
X174625000Y-72390000D03*
X172085000Y-74930000D03*
X174625000Y-74930000D03*
X172085000Y-77470000D03*
X174625000Y-77470000D03*
X172085000Y-80010000D03*
X174625000Y-80010000D03*
X172085000Y-82550000D03*
X174625000Y-82550000D03*
X172085000Y-85090000D03*
X174625000Y-85090000D03*
X172085000Y-87630000D03*
X174625000Y-87630000D03*
X172085000Y-90170000D03*
X174625000Y-90170000D03*
X172085000Y-92710000D03*
X174625000Y-92710000D03*
X172085000Y-95250000D03*
X174625000Y-95250000D03*
X172085000Y-97790000D03*
X174625000Y-97790000D03*
X172085000Y-100330000D03*
X174625000Y-100330000D03*
X172085000Y-102870000D03*
X174625000Y-102870000D03*
X172085000Y-105410000D03*
X174625000Y-105410000D03*
X172085000Y-107950000D03*
X174625000Y-107950000D03*
X172085000Y-110490000D03*
X174625000Y-110490000D03*
X172085000Y-113030000D03*
X174625000Y-113030000D03*
%TD*%
M02*
