%TF.GenerationSoftware,KiCad,Pcbnew,(6.0.0)*%
%TF.CreationDate,2022-01-13T23:18:41+01:00*%
%TF.ProjectId,pi-1w-shield,70692d31-772d-4736-9869-656c642e6b69,1.0*%
%TF.SameCoordinates,Original*%
%TF.FileFunction,Copper,L1,Top*%
%TF.FilePolarity,Positive*%
%FSLAX46Y46*%
G04 Gerber Fmt 4.6, Leading zero omitted, Abs format (unit mm)*
G04 Created by KiCad (PCBNEW (6.0.0)) date 2022-01-13 23:18:41*
%MOMM*%
%LPD*%
G01*
G04 APERTURE LIST*
%TA.AperFunction,ComponentPad*%
%ADD10C,1.600000*%
%TD*%
%TA.AperFunction,ComponentPad*%
%ADD11O,1.600000X1.600000*%
%TD*%
%TA.AperFunction,ComponentPad*%
%ADD12R,1.600000X1.600000*%
%TD*%
%TA.AperFunction,ComponentPad*%
%ADD13R,2.600000X2.600000*%
%TD*%
%TA.AperFunction,ComponentPad*%
%ADD14C,2.600000*%
%TD*%
%TA.AperFunction,ComponentPad*%
%ADD15R,1.700000X1.700000*%
%TD*%
%TA.AperFunction,ComponentPad*%
%ADD16O,1.700000X1.700000*%
%TD*%
%TA.AperFunction,Conductor*%
%ADD17C,1.270000*%
%TD*%
G04 APERTURE END LIST*
D10*
%TO.P,R5,1*%
%TO.N,+3V3*%
X156865000Y-100300000D03*
D11*
%TO.P,R5,2*%
%TO.N,GPIO5*%
X167025000Y-100300000D03*
%TD*%
D10*
%TO.P,R2,1*%
%TO.N,+3V3*%
X156865000Y-77440000D03*
D11*
%TO.P,R2,2*%
%TO.N,GPIO17*%
X167025000Y-77440000D03*
%TD*%
D10*
%TO.P,R4,1*%
%TO.N,+3V3*%
X156865000Y-92680000D03*
D11*
%TO.P,R4,2*%
%TO.N,GPIO22*%
X167025000Y-92680000D03*
%TD*%
D10*
%TO.P,R1,1*%
%TO.N,+3V3*%
X156865000Y-71090000D03*
D11*
%TO.P,R1,2*%
%TO.N,GPIO4*%
X167025000Y-71090000D03*
%TD*%
D10*
%TO.P,R6,1*%
%TO.N,+3V3*%
X156865000Y-107920000D03*
D11*
%TO.P,R6,2*%
%TO.N,GPIO6*%
X167025000Y-107920000D03*
%TD*%
D12*
%TO.P,C2,1*%
%TO.N,+3V3*%
X163850000Y-64652380D03*
D10*
%TO.P,C2,2*%
%TO.N,GNDD*%
X163850000Y-62152380D03*
%TD*%
D12*
%TO.P,C1,1*%
%TO.N,+5V*%
X174645000Y-55850000D03*
D10*
%TO.P,C1,2*%
%TO.N,GNDD*%
X172145000Y-55850000D03*
%TD*%
D13*
%TO.P,J2,1,Pin_1*%
%TO.N,GPIO4*%
X149860000Y-86360000D03*
D14*
%TO.P,J2,2,Pin_2*%
%TO.N,GPIO17*%
X149860000Y-91440000D03*
%TO.P,J2,3,Pin_3*%
%TO.N,GPIO27*%
X149860000Y-96520000D03*
%TO.P,J2,4,Pin_4*%
%TO.N,GPIO22*%
X149860000Y-101600000D03*
%TO.P,J2,5,Pin_5*%
%TO.N,GPIO5*%
X149860000Y-106680000D03*
%TO.P,J2,6,Pin_6*%
%TO.N,GPIO6*%
X149860000Y-111760000D03*
%TD*%
D13*
%TO.P,J3,1,Pin_1*%
%TO.N,GNDD*%
X149860000Y-54610000D03*
D14*
%TO.P,J3,2,Pin_2*%
X149860000Y-59690000D03*
%TO.P,J3,3,Pin_3*%
X149860000Y-64770000D03*
%TO.P,J3,4,Pin_4*%
X149860000Y-69850000D03*
%TO.P,J3,5,Pin_5*%
X149860000Y-74930000D03*
%TO.P,J3,6,Pin_6*%
X149860000Y-80010000D03*
%TD*%
D13*
%TO.P,J1,1,Pin_1*%
%TO.N,+5V*%
X173990000Y-44145000D03*
D14*
%TO.P,J1,2,Pin_2*%
X168910000Y-44145000D03*
%TO.P,J1,3,Pin_3*%
X163830000Y-44145000D03*
%TO.P,J1,4,Pin_4*%
X158750000Y-44145000D03*
%TO.P,J1,5,Pin_5*%
X153670000Y-44145000D03*
%TO.P,J1,6,Pin_6*%
X148590000Y-44145000D03*
%TD*%
D10*
%TO.P,R3,1*%
%TO.N,+3V3*%
X156865000Y-85060000D03*
D11*
%TO.P,R3,2*%
%TO.N,GPIO27*%
X167025000Y-85060000D03*
%TD*%
D15*
%TO.P,J4,1,3V3*%
%TO.N,+3V3*%
X172085000Y-64770000D03*
D16*
%TO.P,J4,2,5V*%
%TO.N,+5V*%
X174625000Y-64770000D03*
%TO.P,J4,3,SDA/GPIO2*%
%TO.N,unconnected-(J4-Pad3)*%
X172085000Y-67310000D03*
%TO.P,J4,4,5V*%
%TO.N,unconnected-(J4-Pad4)*%
X174625000Y-67310000D03*
%TO.P,J4,5,SCL/GPIO3*%
%TO.N,unconnected-(J4-Pad5)*%
X172085000Y-69850000D03*
%TO.P,J4,6,GND*%
%TO.N,unconnected-(J4-Pad6)*%
X174625000Y-69850000D03*
%TO.P,J4,7,GCLK0/GPIO4*%
%TO.N,GPIO4*%
X172085000Y-72390000D03*
%TO.P,J4,8,GPIO14/TXD*%
%TO.N,unconnected-(J4-Pad8)*%
X174625000Y-72390000D03*
%TO.P,J4,9,GND*%
%TO.N,unconnected-(J4-Pad9)*%
X172085000Y-74930000D03*
%TO.P,J4,10,GPIO15/RXD*%
%TO.N,unconnected-(J4-Pad10)*%
X174625000Y-74930000D03*
%TO.P,J4,11,GPIO17*%
%TO.N,GPIO17*%
X172085000Y-77470000D03*
%TO.P,J4,12,GPIO18/PWM0*%
%TO.N,unconnected-(J4-Pad12)*%
X174625000Y-77470000D03*
%TO.P,J4,13,GPIO27*%
%TO.N,GPIO27*%
X172085000Y-80010000D03*
%TO.P,J4,14,GND*%
%TO.N,unconnected-(J4-Pad14)*%
X174625000Y-80010000D03*
%TO.P,J4,15,GPIO22*%
%TO.N,GPIO22*%
X172085000Y-82550000D03*
%TO.P,J4,16,GPIO23*%
%TO.N,unconnected-(J4-Pad16)*%
X174625000Y-82550000D03*
%TO.P,J4,17,3V3*%
%TO.N,unconnected-(J4-Pad17)*%
X172085000Y-85090000D03*
%TO.P,J4,18,GPIO24*%
%TO.N,unconnected-(J4-Pad18)*%
X174625000Y-85090000D03*
%TO.P,J4,19,MOSI0/GPIO10*%
%TO.N,unconnected-(J4-Pad19)*%
X172085000Y-87630000D03*
%TO.P,J4,20,GND*%
%TO.N,unconnected-(J4-Pad20)*%
X174625000Y-87630000D03*
%TO.P,J4,21,MISO0/GPIO9*%
%TO.N,unconnected-(J4-Pad21)*%
X172085000Y-90170000D03*
%TO.P,J4,22,GPIO25*%
%TO.N,unconnected-(J4-Pad22)*%
X174625000Y-90170000D03*
%TO.P,J4,23,SCLK0/GPIO11*%
%TO.N,unconnected-(J4-Pad23)*%
X172085000Y-92710000D03*
%TO.P,J4,24,~{CE0}/GPIO8*%
%TO.N,unconnected-(J4-Pad24)*%
X174625000Y-92710000D03*
%TO.P,J4,25,GND*%
%TO.N,unconnected-(J4-Pad25)*%
X172085000Y-95250000D03*
%TO.P,J4,26,~{CE1}/GPIO7*%
%TO.N,unconnected-(J4-Pad26)*%
X174625000Y-95250000D03*
%TO.P,J4,27,ID_SD/GPIO0*%
%TO.N,unconnected-(J4-Pad27)*%
X172085000Y-97790000D03*
%TO.P,J4,28,ID_SC/GPIO1*%
%TO.N,unconnected-(J4-Pad28)*%
X174625000Y-97790000D03*
%TO.P,J4,29,GCLK1/GPIO5*%
%TO.N,GPIO5*%
X172085000Y-100330000D03*
%TO.P,J4,30,GND*%
%TO.N,unconnected-(J4-Pad30)*%
X174625000Y-100330000D03*
%TO.P,J4,31,GCLK2/GPIO6*%
%TO.N,GPIO6*%
X172085000Y-102870000D03*
%TO.P,J4,32,PWM0/GPIO12*%
%TO.N,unconnected-(J4-Pad32)*%
X174625000Y-102870000D03*
%TO.P,J4,33,PWM1/GPIO13*%
%TO.N,unconnected-(J4-Pad33)*%
X172085000Y-105410000D03*
%TO.P,J4,34,GND*%
%TO.N,unconnected-(J4-Pad34)*%
X174625000Y-105410000D03*
%TO.P,J4,35,GPIO19/MISO1*%
%TO.N,unconnected-(J4-Pad35)*%
X172085000Y-107950000D03*
%TO.P,J4,36,GPIO16*%
%TO.N,unconnected-(J4-Pad36)*%
X174625000Y-107950000D03*
%TO.P,J4,37,GPIO26*%
%TO.N,unconnected-(J4-Pad37)*%
X172085000Y-110490000D03*
%TO.P,J4,38,GPIO20/MOSI1*%
%TO.N,unconnected-(J4-Pad38)*%
X174625000Y-110490000D03*
%TO.P,J4,39,GND*%
%TO.N,GNDD*%
X172085000Y-113030000D03*
%TO.P,J4,40,GPIO21/SCLK1*%
%TO.N,unconnected-(J4-Pad40)*%
X174625000Y-113030000D03*
%TD*%
D17*
%TO.N,+5V*%
X174625000Y-64770000D02*
X174625000Y-44755000D01*
X173355000Y-43485000D02*
X147320000Y-43485000D01*
X174625000Y-64760000D02*
X174645000Y-64740000D01*
X174625000Y-64770000D02*
X174625000Y-64760000D01*
X174625000Y-44755000D02*
X173355000Y-43485000D01*
%TO.N,GPIO4*%
X150165000Y-84150000D02*
X150165000Y-86360000D01*
X169565000Y-71090000D02*
X167025000Y-71090000D01*
X167025000Y-71090000D02*
X167025000Y-72360000D01*
X170865000Y-72390000D02*
X169565000Y-71090000D01*
X153670000Y-80645000D02*
X150165000Y-84150000D01*
X156210000Y-74295000D02*
X155575000Y-74295000D01*
X165120000Y-74265000D02*
X156210000Y-74265000D01*
X167025000Y-72360000D02*
X165120000Y-74265000D01*
X172085000Y-72390000D02*
X170865000Y-72390000D01*
X153670000Y-76200000D02*
X153670000Y-80645000D01*
X155575000Y-74295000D02*
X153670000Y-76200000D01*
%TO.N,GPIO17*%
X167055000Y-77470000D02*
X167025000Y-77440000D01*
X163215000Y-81250000D02*
X156557500Y-81250000D01*
X153670000Y-84137500D02*
X153670000Y-87935000D01*
X153670000Y-87935000D02*
X150165000Y-91440000D01*
X167025000Y-77440000D02*
X163215000Y-81250000D01*
X172085000Y-77470000D02*
X167055000Y-77470000D01*
X156557500Y-81250000D02*
X153670000Y-84137500D01*
%TO.N,GPIO27*%
X169535000Y-80010000D02*
X167025000Y-82520000D01*
X153670000Y-92075000D02*
X153670000Y-93015000D01*
X167025000Y-82520000D02*
X167025000Y-85060000D01*
X156875000Y-88870000D02*
X153670000Y-92075000D01*
X167025000Y-85060000D02*
X163215000Y-88870000D01*
X163215000Y-88870000D02*
X156875000Y-88870000D01*
X172085000Y-80010000D02*
X169535000Y-80010000D01*
X153670000Y-93015000D02*
X150165000Y-96520000D01*
%TO.N,GPIO22*%
X155605000Y-96490000D02*
X155575000Y-96520000D01*
X167025000Y-92680000D02*
X163215000Y-96490000D01*
X169565000Y-83790000D02*
X169565000Y-90140000D01*
X155245000Y-96520000D02*
X150165000Y-101600000D01*
X169565000Y-90140000D02*
X167025000Y-92680000D01*
X163215000Y-96490000D02*
X155605000Y-96490000D01*
X170805000Y-82550000D02*
X169565000Y-83790000D01*
X172085000Y-82550000D02*
X170805000Y-82550000D01*
%TO.N,GPIO5*%
X165755000Y-100300000D02*
X161945000Y-104110000D01*
X152705000Y-104140000D02*
X150165000Y-106680000D01*
X172085000Y-100330000D02*
X167055000Y-100330000D01*
X161945000Y-104110000D02*
X153035000Y-104110000D01*
X167025000Y-100300000D02*
X165755000Y-100300000D01*
X167055000Y-100330000D02*
X167025000Y-100300000D01*
%TO.N,GPIO6*%
X167025000Y-105380000D02*
X167025000Y-107920000D01*
X163215000Y-111730000D02*
X150195000Y-111730000D01*
X150195000Y-111730000D02*
X150165000Y-111760000D01*
X167025000Y-107920000D02*
X163215000Y-111730000D01*
X172085000Y-102870000D02*
X169535000Y-102870000D01*
X169535000Y-102870000D02*
X167025000Y-105380000D01*
%TD*%
M02*
