%TF.GenerationSoftware,KiCad,Pcbnew,(6.0.0)*%
%TF.CreationDate,2022-01-13T23:18:41+01:00*%
%TF.ProjectId,pi-1w-shield,70692d31-772d-4736-9869-656c642e6b69,1.0*%
%TF.SameCoordinates,Original*%
%TF.FileFunction,Legend,Top*%
%TF.FilePolarity,Positive*%
%FSLAX46Y46*%
G04 Gerber Fmt 4.6, Leading zero omitted, Abs format (unit mm)*
G04 Created by KiCad (PCBNEW (6.0.0)) date 2022-01-13 23:18:41*
%MOMM*%
%LPD*%
G01*
G04 APERTURE LIST*
%ADD10C,0.150000*%
%ADD11C,0.120000*%
G04 APERTURE END LIST*
D10*
X157116582Y-54486091D02*
X156842772Y-54009901D01*
X156545153Y-54486091D02*
X156670153Y-53486091D01*
X157051105Y-53486091D01*
X157140391Y-53533711D01*
X157182058Y-53581330D01*
X157217772Y-53676568D01*
X157199915Y-53819425D01*
X157140391Y-53914663D01*
X157086820Y-53962282D01*
X156985629Y-54009901D01*
X156604677Y-54009901D01*
X157973725Y-54486091D02*
X158039201Y-53962282D01*
X158003486Y-53867044D01*
X157914201Y-53819425D01*
X157723725Y-53819425D01*
X157622534Y-53867044D01*
X157979677Y-54438472D02*
X157878486Y-54486091D01*
X157640391Y-54486091D01*
X157551105Y-54438472D01*
X157515391Y-54343234D01*
X157527296Y-54247996D01*
X157586820Y-54152758D01*
X157688010Y-54105139D01*
X157926105Y-54105139D01*
X158027296Y-54057520D01*
X158408248Y-54438472D02*
X158497534Y-54486091D01*
X158688010Y-54486091D01*
X158789201Y-54438472D01*
X158848725Y-54343234D01*
X158854677Y-54295615D01*
X158818963Y-54200377D01*
X158729677Y-54152758D01*
X158586820Y-54152758D01*
X158497534Y-54105139D01*
X158461820Y-54009901D01*
X158467772Y-53962282D01*
X158527296Y-53867044D01*
X158628486Y-53819425D01*
X158771344Y-53819425D01*
X158860629Y-53867044D01*
X159342772Y-53819425D02*
X159217772Y-54819425D01*
X159336820Y-53867044D02*
X159438010Y-53819425D01*
X159628486Y-53819425D01*
X159717772Y-53867044D01*
X159759439Y-53914663D01*
X159795153Y-54009901D01*
X159759439Y-54295615D01*
X159699915Y-54390853D01*
X159646344Y-54438472D01*
X159545153Y-54486091D01*
X159354677Y-54486091D01*
X159265391Y-54438472D01*
X160164201Y-54486091D02*
X160289201Y-53486091D01*
X160241582Y-53867044D02*
X160342772Y-53819425D01*
X160533248Y-53819425D01*
X160622534Y-53867044D01*
X160664201Y-53914663D01*
X160699915Y-54009901D01*
X160664201Y-54295615D01*
X160604677Y-54390853D01*
X160551105Y-54438472D01*
X160449915Y-54486091D01*
X160259439Y-54486091D01*
X160170153Y-54438472D01*
X161455867Y-54438472D02*
X161354677Y-54486091D01*
X161164201Y-54486091D01*
X161074915Y-54438472D01*
X161039201Y-54343234D01*
X161086820Y-53962282D01*
X161146344Y-53867044D01*
X161247534Y-53819425D01*
X161438010Y-53819425D01*
X161527296Y-53867044D01*
X161563010Y-53962282D01*
X161551105Y-54057520D01*
X161063010Y-54152758D01*
X161926105Y-54486091D02*
X162009439Y-53819425D01*
X161985629Y-54009901D02*
X162045153Y-53914663D01*
X162098725Y-53867044D01*
X162199915Y-53819425D01*
X162295153Y-53819425D01*
X162545153Y-54486091D02*
X162628486Y-53819425D01*
X162604677Y-54009901D02*
X162664201Y-53914663D01*
X162717772Y-53867044D01*
X162818963Y-53819425D01*
X162914201Y-53819425D01*
X163152296Y-53819425D02*
X163307058Y-54486091D01*
X163628486Y-53819425D02*
X163307058Y-54486091D01*
X163182058Y-54724187D01*
X163128486Y-54771806D01*
X163027296Y-54819425D01*
X165211820Y-54486091D02*
X164640391Y-54486091D01*
X164926105Y-54486091D02*
X165051105Y-53486091D01*
X164938010Y-53628949D01*
X164830867Y-53724187D01*
X164729677Y-53771806D01*
X165688010Y-54105139D02*
X166449915Y-54105139D01*
X166866582Y-53819425D02*
X166973725Y-54486091D01*
X167223725Y-54009901D01*
X167354677Y-54486091D01*
X167628486Y-53819425D01*
X167926105Y-54486091D02*
X168009439Y-53819425D01*
X168051105Y-53486091D02*
X167997534Y-53533711D01*
X168039201Y-53581330D01*
X168092772Y-53533711D01*
X168051105Y-53486091D01*
X168039201Y-53581330D01*
X168402296Y-54486091D02*
X168485629Y-53819425D01*
X168461820Y-54009901D02*
X168521344Y-53914663D01*
X168574915Y-53867044D01*
X168676105Y-53819425D01*
X168771344Y-53819425D01*
X169408248Y-54438472D02*
X169307058Y-54486091D01*
X169116582Y-54486091D01*
X169027296Y-54438472D01*
X168991582Y-54343234D01*
X169039201Y-53962282D01*
X169098725Y-53867044D01*
X169199915Y-53819425D01*
X169390391Y-53819425D01*
X169479677Y-53867044D01*
X169515391Y-53962282D01*
X169503486Y-54057520D01*
X169015391Y-54152758D01*
X158830867Y-56096091D02*
X158914201Y-55429425D01*
X158902296Y-55524663D02*
X158955867Y-55477044D01*
X159057058Y-55429425D01*
X159199915Y-55429425D01*
X159289201Y-55477044D01*
X159324915Y-55572282D01*
X159259439Y-56096091D01*
X159324915Y-55572282D02*
X159384439Y-55477044D01*
X159485629Y-55429425D01*
X159628486Y-55429425D01*
X159717772Y-55477044D01*
X159753486Y-55572282D01*
X159688010Y-56096091D01*
X160676105Y-55429425D02*
X160592772Y-56096091D01*
X160247534Y-55429425D02*
X160182058Y-55953234D01*
X160217772Y-56048472D01*
X160307058Y-56096091D01*
X160449915Y-56096091D01*
X160551105Y-56048472D01*
X160604677Y-56000853D01*
X161211820Y-56096091D02*
X161122534Y-56048472D01*
X161086820Y-55953234D01*
X161193963Y-55096091D01*
X161533248Y-55429425D02*
X161914201Y-55429425D01*
X161717772Y-55096091D02*
X161610629Y-55953234D01*
X161646344Y-56048472D01*
X161735629Y-56096091D01*
X161830867Y-56096091D01*
X162164201Y-56096091D02*
X162247534Y-55429425D01*
X162289201Y-55096091D02*
X162235629Y-55143711D01*
X162277296Y-55191330D01*
X162330867Y-55143711D01*
X162289201Y-55096091D01*
X162277296Y-55191330D01*
X162688010Y-55715139D02*
X163449915Y-55715139D01*
X163836820Y-56048472D02*
X163926105Y-56096091D01*
X164116582Y-56096091D01*
X164217772Y-56048472D01*
X164277296Y-55953234D01*
X164283248Y-55905615D01*
X164247534Y-55810377D01*
X164158248Y-55762758D01*
X164015391Y-55762758D01*
X163926105Y-55715139D01*
X163890391Y-55619901D01*
X163896344Y-55572282D01*
X163955867Y-55477044D01*
X164057058Y-55429425D01*
X164199915Y-55429425D01*
X164289201Y-55477044D01*
X164688010Y-56096091D02*
X164813010Y-55096091D01*
X165116582Y-56096091D02*
X165182058Y-55572282D01*
X165146344Y-55477044D01*
X165057058Y-55429425D01*
X164914201Y-55429425D01*
X164813010Y-55477044D01*
X164759439Y-55524663D01*
X165592772Y-56096091D02*
X165676105Y-55429425D01*
X165717772Y-55096091D02*
X165664201Y-55143711D01*
X165705867Y-55191330D01*
X165759439Y-55143711D01*
X165717772Y-55096091D01*
X165705867Y-55191330D01*
X166455867Y-56048472D02*
X166354677Y-56096091D01*
X166164201Y-56096091D01*
X166074915Y-56048472D01*
X166039201Y-55953234D01*
X166086820Y-55572282D01*
X166146344Y-55477044D01*
X166247534Y-55429425D01*
X166438010Y-55429425D01*
X166527296Y-55477044D01*
X166563010Y-55572282D01*
X166551105Y-55667520D01*
X166063010Y-55762758D01*
X167068963Y-56096091D02*
X166979677Y-56048472D01*
X166943963Y-55953234D01*
X167051105Y-55096091D01*
X167878486Y-56096091D02*
X168003486Y-55096091D01*
X167884439Y-56048472D02*
X167783248Y-56096091D01*
X167592772Y-56096091D01*
X167503486Y-56048472D01*
X167461820Y-56000853D01*
X167426105Y-55905615D01*
X167461820Y-55619901D01*
X167521344Y-55524663D01*
X167574915Y-55477044D01*
X167676105Y-55429425D01*
X167866582Y-55429425D01*
X167955867Y-55477044D01*
X159878486Y-57706091D02*
X160003486Y-56706091D01*
X159955867Y-57087044D02*
X160057058Y-57039425D01*
X160247534Y-57039425D01*
X160336820Y-57087044D01*
X160378486Y-57134663D01*
X160414201Y-57229901D01*
X160378486Y-57515615D01*
X160318963Y-57610853D01*
X160265391Y-57658472D01*
X160164201Y-57706091D01*
X159973725Y-57706091D01*
X159884439Y-57658472D01*
X160771344Y-57039425D02*
X160926105Y-57706091D01*
X161247534Y-57039425D02*
X160926105Y-57706091D01*
X160801105Y-57944187D01*
X160747534Y-57991806D01*
X160646344Y-58039425D01*
X161557058Y-57610853D02*
X161598725Y-57658472D01*
X161545153Y-57706091D01*
X161503486Y-57658472D01*
X161557058Y-57610853D01*
X161545153Y-57706091D01*
X161622534Y-57087044D02*
X161664201Y-57134663D01*
X161610629Y-57182282D01*
X161568963Y-57134663D01*
X161622534Y-57087044D01*
X161610629Y-57182282D01*
X162783248Y-57706091D02*
X162908248Y-56706091D01*
X162926105Y-57325139D02*
X163164201Y-57706091D01*
X163247534Y-57039425D02*
X162818963Y-57420377D01*
X163676105Y-57039425D02*
X163592772Y-57706091D01*
X163664201Y-57134663D02*
X163717772Y-57087044D01*
X163818963Y-57039425D01*
X163961820Y-57039425D01*
X164051105Y-57087044D01*
X164086820Y-57182282D01*
X164021344Y-57706091D01*
X165009439Y-57039425D02*
X164926105Y-57706091D01*
X164580867Y-57039425D02*
X164515391Y-57563234D01*
X164551105Y-57658472D01*
X164640391Y-57706091D01*
X164783248Y-57706091D01*
X164884439Y-57658472D01*
X164938010Y-57610853D01*
X165545153Y-57706091D02*
X165455867Y-57658472D01*
X165420153Y-57563234D01*
X165527296Y-56706091D01*
X166009439Y-57039425D02*
X165884439Y-58039425D01*
X166003486Y-57087044D02*
X166104677Y-57039425D01*
X166295153Y-57039425D01*
X166384439Y-57087044D01*
X166426105Y-57134663D01*
X166461820Y-57229901D01*
X166426105Y-57515615D01*
X166366582Y-57610853D01*
X166313010Y-57658472D01*
X166211820Y-57706091D01*
X166021344Y-57706091D01*
X165932058Y-57658472D01*
X166830867Y-57706091D02*
X166914201Y-57039425D01*
X166955867Y-56706091D02*
X166902296Y-56753711D01*
X166943963Y-56801330D01*
X166997534Y-56753711D01*
X166955867Y-56706091D01*
X166943963Y-56801330D01*
X156045153Y-59316091D02*
X156128486Y-58649425D01*
X156104677Y-58839901D02*
X156164201Y-58744663D01*
X156217772Y-58697044D01*
X156318963Y-58649425D01*
X156414201Y-58649425D01*
X157051105Y-59268472D02*
X156949915Y-59316091D01*
X156759439Y-59316091D01*
X156670153Y-59268472D01*
X156634439Y-59173234D01*
X156682058Y-58792282D01*
X156741582Y-58697044D01*
X156842772Y-58649425D01*
X157033248Y-58649425D01*
X157122534Y-58697044D01*
X157158248Y-58792282D01*
X157146344Y-58887520D01*
X156658248Y-58982758D01*
X157509439Y-58649425D02*
X157664201Y-59316091D01*
X157985629Y-58649425D01*
X158295153Y-59220853D02*
X158336820Y-59268472D01*
X158283248Y-59316091D01*
X158241582Y-59268472D01*
X158295153Y-59220853D01*
X158283248Y-59316091D01*
X158360629Y-58697044D02*
X158402296Y-58744663D01*
X158348725Y-58792282D01*
X158307058Y-58744663D01*
X158360629Y-58697044D01*
X158348725Y-58792282D01*
X160045153Y-59316091D02*
X159473725Y-59316091D01*
X159759439Y-59316091D02*
X159884439Y-58316091D01*
X159771344Y-58458949D01*
X159664201Y-58554187D01*
X159563010Y-58601806D01*
X160485629Y-59220853D02*
X160527296Y-59268472D01*
X160473725Y-59316091D01*
X160432058Y-59268472D01*
X160485629Y-59220853D01*
X160473725Y-59316091D01*
X161265391Y-58316091D02*
X161360629Y-58316091D01*
X161449915Y-58363711D01*
X161491582Y-58411330D01*
X161527296Y-58506568D01*
X161551105Y-58697044D01*
X161521344Y-58935139D01*
X161449915Y-59125615D01*
X161390391Y-59220853D01*
X161336820Y-59268472D01*
X161235629Y-59316091D01*
X161140391Y-59316091D01*
X161051105Y-59268472D01*
X161009439Y-59220853D01*
X160973725Y-59125615D01*
X160949915Y-58935139D01*
X160979677Y-58697044D01*
X161051105Y-58506568D01*
X161110629Y-58411330D01*
X161164201Y-58363711D01*
X161265391Y-58316091D01*
X162902296Y-59697044D02*
X162860629Y-59649425D01*
X162783248Y-59506568D01*
X162747534Y-59411330D01*
X162717772Y-59268472D01*
X162699915Y-59030377D01*
X162723725Y-58839901D01*
X162801105Y-58601806D01*
X162866582Y-58458949D01*
X162926105Y-58363711D01*
X163039201Y-58220853D01*
X163092772Y-58173234D01*
X163741582Y-58316091D02*
X163652296Y-59030377D01*
X163586820Y-59173234D01*
X163479677Y-59268472D01*
X163330867Y-59316091D01*
X163235629Y-59316091D01*
X164521344Y-59316091D02*
X164586820Y-58792282D01*
X164551105Y-58697044D01*
X164461820Y-58649425D01*
X164271344Y-58649425D01*
X164170153Y-58697044D01*
X164527296Y-59268472D02*
X164426105Y-59316091D01*
X164188010Y-59316091D01*
X164098725Y-59268472D01*
X164063010Y-59173234D01*
X164074915Y-59077996D01*
X164134439Y-58982758D01*
X164235629Y-58935139D01*
X164473725Y-58935139D01*
X164574915Y-58887520D01*
X165080867Y-58649425D02*
X164997534Y-59316091D01*
X165068963Y-58744663D02*
X165122534Y-58697044D01*
X165223725Y-58649425D01*
X165366582Y-58649425D01*
X165455867Y-58697044D01*
X165491582Y-58792282D01*
X165426105Y-59316091D01*
X166729677Y-58411330D02*
X166783248Y-58363711D01*
X166884439Y-58316091D01*
X167122534Y-58316091D01*
X167211820Y-58363711D01*
X167253486Y-58411330D01*
X167289201Y-58506568D01*
X167277296Y-58601806D01*
X167211820Y-58744663D01*
X166568963Y-59316091D01*
X167188010Y-59316091D01*
X167932058Y-58316091D02*
X168027296Y-58316091D01*
X168116582Y-58363711D01*
X168158248Y-58411330D01*
X168193963Y-58506568D01*
X168217772Y-58697044D01*
X168188010Y-58935139D01*
X168116582Y-59125615D01*
X168057058Y-59220853D01*
X168003486Y-59268472D01*
X167902296Y-59316091D01*
X167807058Y-59316091D01*
X167717772Y-59268472D01*
X167676105Y-59220853D01*
X167640391Y-59125615D01*
X167616582Y-58935139D01*
X167646344Y-58697044D01*
X167717772Y-58506568D01*
X167777296Y-58411330D01*
X167830867Y-58363711D01*
X167932058Y-58316091D01*
X168634439Y-58411330D02*
X168688010Y-58363711D01*
X168789201Y-58316091D01*
X169027296Y-58316091D01*
X169116582Y-58363711D01*
X169158248Y-58411330D01*
X169193963Y-58506568D01*
X169182058Y-58601806D01*
X169116582Y-58744663D01*
X168473725Y-59316091D01*
X169092772Y-59316091D01*
X169586820Y-58411330D02*
X169640391Y-58363711D01*
X169741582Y-58316091D01*
X169979677Y-58316091D01*
X170068963Y-58363711D01*
X170110629Y-58411330D01*
X170146344Y-58506568D01*
X170134439Y-58601806D01*
X170068963Y-58744663D01*
X169426105Y-59316091D01*
X170045153Y-59316091D01*
X170330867Y-59697044D02*
X170384439Y-59649425D01*
X170497534Y-59506568D01*
X170557058Y-59411330D01*
X170622534Y-59268472D01*
X170699915Y-59030377D01*
X170723725Y-58839901D01*
X170705867Y-58601806D01*
X170676105Y-58458949D01*
X170640391Y-58363711D01*
X170563010Y-58220853D01*
X170521344Y-58173234D01*
%TO.C,R5*%
X161778333Y-98382380D02*
X161445000Y-97906190D01*
X161206904Y-98382380D02*
X161206904Y-97382380D01*
X161587857Y-97382380D01*
X161683095Y-97430000D01*
X161730714Y-97477619D01*
X161778333Y-97572857D01*
X161778333Y-97715714D01*
X161730714Y-97810952D01*
X161683095Y-97858571D01*
X161587857Y-97906190D01*
X161206904Y-97906190D01*
X162683095Y-97382380D02*
X162206904Y-97382380D01*
X162159285Y-97858571D01*
X162206904Y-97810952D01*
X162302142Y-97763333D01*
X162540238Y-97763333D01*
X162635476Y-97810952D01*
X162683095Y-97858571D01*
X162730714Y-97953809D01*
X162730714Y-98191904D01*
X162683095Y-98287142D01*
X162635476Y-98334761D01*
X162540238Y-98382380D01*
X162302142Y-98382380D01*
X162206904Y-98334761D01*
X162159285Y-98287142D01*
X160778333Y-102217619D02*
X160825952Y-102170000D01*
X160921190Y-102122380D01*
X161159285Y-102122380D01*
X161254523Y-102170000D01*
X161302142Y-102217619D01*
X161349761Y-102312857D01*
X161349761Y-102408095D01*
X161302142Y-102550952D01*
X160730714Y-103122380D01*
X161349761Y-103122380D01*
X161778333Y-103122380D02*
X161778333Y-102122380D01*
X161873571Y-102741428D02*
X162159285Y-103122380D01*
X162159285Y-102455714D02*
X161778333Y-102836666D01*
X162492619Y-102122380D02*
X163159285Y-102122380D01*
X162730714Y-103122380D01*
%TO.C,R2*%
X161778333Y-75522380D02*
X161445000Y-75046190D01*
X161206904Y-75522380D02*
X161206904Y-74522380D01*
X161587857Y-74522380D01*
X161683095Y-74570000D01*
X161730714Y-74617619D01*
X161778333Y-74712857D01*
X161778333Y-74855714D01*
X161730714Y-74950952D01*
X161683095Y-74998571D01*
X161587857Y-75046190D01*
X161206904Y-75046190D01*
X162159285Y-74617619D02*
X162206904Y-74570000D01*
X162302142Y-74522380D01*
X162540238Y-74522380D01*
X162635476Y-74570000D01*
X162683095Y-74617619D01*
X162730714Y-74712857D01*
X162730714Y-74808095D01*
X162683095Y-74950952D01*
X162111666Y-75522380D01*
X162730714Y-75522380D01*
X160778333Y-79357619D02*
X160825952Y-79310000D01*
X160921190Y-79262380D01*
X161159285Y-79262380D01*
X161254523Y-79310000D01*
X161302142Y-79357619D01*
X161349761Y-79452857D01*
X161349761Y-79548095D01*
X161302142Y-79690952D01*
X160730714Y-80262380D01*
X161349761Y-80262380D01*
X161778333Y-80262380D02*
X161778333Y-79262380D01*
X161873571Y-79881428D02*
X162159285Y-80262380D01*
X162159285Y-79595714D02*
X161778333Y-79976666D01*
X162492619Y-79262380D02*
X163159285Y-79262380D01*
X162730714Y-80262380D01*
%TO.C,R4*%
X161778333Y-90762380D02*
X161445000Y-90286190D01*
X161206904Y-90762380D02*
X161206904Y-89762380D01*
X161587857Y-89762380D01*
X161683095Y-89810000D01*
X161730714Y-89857619D01*
X161778333Y-89952857D01*
X161778333Y-90095714D01*
X161730714Y-90190952D01*
X161683095Y-90238571D01*
X161587857Y-90286190D01*
X161206904Y-90286190D01*
X162635476Y-90095714D02*
X162635476Y-90762380D01*
X162397380Y-89714761D02*
X162159285Y-90429047D01*
X162778333Y-90429047D01*
X160778333Y-94597619D02*
X160825952Y-94550000D01*
X160921190Y-94502380D01*
X161159285Y-94502380D01*
X161254523Y-94550000D01*
X161302142Y-94597619D01*
X161349761Y-94692857D01*
X161349761Y-94788095D01*
X161302142Y-94930952D01*
X160730714Y-95502380D01*
X161349761Y-95502380D01*
X161778333Y-95502380D02*
X161778333Y-94502380D01*
X161873571Y-95121428D02*
X162159285Y-95502380D01*
X162159285Y-94835714D02*
X161778333Y-95216666D01*
X162492619Y-94502380D02*
X163159285Y-94502380D01*
X162730714Y-95502380D01*
%TO.C,R1*%
X161778333Y-69172380D02*
X161445000Y-68696190D01*
X161206904Y-69172380D02*
X161206904Y-68172380D01*
X161587857Y-68172380D01*
X161683095Y-68220000D01*
X161730714Y-68267619D01*
X161778333Y-68362857D01*
X161778333Y-68505714D01*
X161730714Y-68600952D01*
X161683095Y-68648571D01*
X161587857Y-68696190D01*
X161206904Y-68696190D01*
X162730714Y-69172380D02*
X162159285Y-69172380D01*
X162445000Y-69172380D02*
X162445000Y-68172380D01*
X162349761Y-68315238D01*
X162254523Y-68410476D01*
X162159285Y-68458095D01*
X160778333Y-73207619D02*
X160825952Y-73160000D01*
X160921190Y-73112380D01*
X161159285Y-73112380D01*
X161254523Y-73160000D01*
X161302142Y-73207619D01*
X161349761Y-73302857D01*
X161349761Y-73398095D01*
X161302142Y-73540952D01*
X160730714Y-74112380D01*
X161349761Y-74112380D01*
X161778333Y-74112380D02*
X161778333Y-73112380D01*
X161873571Y-73731428D02*
X162159285Y-74112380D01*
X162159285Y-73445714D02*
X161778333Y-73826666D01*
X162492619Y-73112380D02*
X163159285Y-73112380D01*
X162730714Y-74112380D01*
%TO.C,R6*%
X161778333Y-106002380D02*
X161445000Y-105526190D01*
X161206904Y-106002380D02*
X161206904Y-105002380D01*
X161587857Y-105002380D01*
X161683095Y-105050000D01*
X161730714Y-105097619D01*
X161778333Y-105192857D01*
X161778333Y-105335714D01*
X161730714Y-105430952D01*
X161683095Y-105478571D01*
X161587857Y-105526190D01*
X161206904Y-105526190D01*
X162635476Y-105002380D02*
X162445000Y-105002380D01*
X162349761Y-105050000D01*
X162302142Y-105097619D01*
X162206904Y-105240476D01*
X162159285Y-105430952D01*
X162159285Y-105811904D01*
X162206904Y-105907142D01*
X162254523Y-105954761D01*
X162349761Y-106002380D01*
X162540238Y-106002380D01*
X162635476Y-105954761D01*
X162683095Y-105907142D01*
X162730714Y-105811904D01*
X162730714Y-105573809D01*
X162683095Y-105478571D01*
X162635476Y-105430952D01*
X162540238Y-105383333D01*
X162349761Y-105383333D01*
X162254523Y-105430952D01*
X162206904Y-105478571D01*
X162159285Y-105573809D01*
X160778333Y-109837619D02*
X160825952Y-109790000D01*
X160921190Y-109742380D01*
X161159285Y-109742380D01*
X161254523Y-109790000D01*
X161302142Y-109837619D01*
X161349761Y-109932857D01*
X161349761Y-110028095D01*
X161302142Y-110170952D01*
X160730714Y-110742380D01*
X161349761Y-110742380D01*
X161778333Y-110742380D02*
X161778333Y-109742380D01*
X161873571Y-110361428D02*
X162159285Y-110742380D01*
X162159285Y-110075714D02*
X161778333Y-110456666D01*
X162492619Y-109742380D02*
X163159285Y-109742380D01*
X162730714Y-110742380D01*
%TO.C,C2*%
X159807142Y-63569046D02*
X159854761Y-63616665D01*
X159902380Y-63759522D01*
X159902380Y-63854760D01*
X159854761Y-63997618D01*
X159759523Y-64092856D01*
X159664285Y-64140475D01*
X159473809Y-64188094D01*
X159330952Y-64188094D01*
X159140476Y-64140475D01*
X159045238Y-64092856D01*
X158950000Y-63997618D01*
X158902380Y-63854760D01*
X158902380Y-63759522D01*
X158950000Y-63616665D01*
X158997619Y-63569046D01*
X158997619Y-63188094D02*
X158950000Y-63140475D01*
X158902380Y-63045237D01*
X158902380Y-62807141D01*
X158950000Y-62711903D01*
X158997619Y-62664284D01*
X159092857Y-62616665D01*
X159188095Y-62616665D01*
X159330952Y-62664284D01*
X159902380Y-63235713D01*
X159902380Y-62616665D01*
X168035714Y-64140475D02*
X168702380Y-64140475D01*
X167654761Y-64378570D02*
X168369047Y-64616665D01*
X168369047Y-63997618D01*
X167702380Y-63711903D02*
X167702380Y-63045237D01*
X168702380Y-63473808D01*
X168035714Y-62235713D02*
X168702380Y-62235713D01*
X168035714Y-62664284D02*
X168559523Y-62664284D01*
X168654761Y-62616665D01*
X168702380Y-62521427D01*
X168702380Y-62378570D01*
X168654761Y-62283332D01*
X168607142Y-62235713D01*
%TO.C,C1*%
X173228333Y-60607142D02*
X173180714Y-60654761D01*
X173037857Y-60702380D01*
X172942619Y-60702380D01*
X172799761Y-60654761D01*
X172704523Y-60559523D01*
X172656904Y-60464285D01*
X172609285Y-60273809D01*
X172609285Y-60130952D01*
X172656904Y-59940476D01*
X172704523Y-59845238D01*
X172799761Y-59750000D01*
X172942619Y-59702380D01*
X173037857Y-59702380D01*
X173180714Y-59750000D01*
X173228333Y-59797619D01*
X174180714Y-60702380D02*
X173609285Y-60702380D01*
X173895000Y-60702380D02*
X173895000Y-59702380D01*
X173799761Y-59845238D01*
X173704523Y-59940476D01*
X173609285Y-59988095D01*
X172656904Y-51235714D02*
X172656904Y-51902380D01*
X172418809Y-50854761D02*
X172180714Y-51569047D01*
X172799761Y-51569047D01*
X173085476Y-50902380D02*
X173752142Y-50902380D01*
X173323571Y-51902380D01*
X174561666Y-51235714D02*
X174561666Y-51902380D01*
X174133095Y-51235714D02*
X174133095Y-51759523D01*
X174180714Y-51854761D01*
X174275952Y-51902380D01*
X174418809Y-51902380D01*
X174514047Y-51854761D01*
X174561666Y-51807142D01*
%TO.C,J2*%
X155662380Y-96853333D02*
X156376666Y-96853333D01*
X156519523Y-96900952D01*
X156614761Y-96996190D01*
X156662380Y-97139047D01*
X156662380Y-97234285D01*
X155757619Y-96424761D02*
X155710000Y-96377142D01*
X155662380Y-96281904D01*
X155662380Y-96043809D01*
X155710000Y-95948571D01*
X155757619Y-95900952D01*
X155852857Y-95853333D01*
X155948095Y-95853333D01*
X156090952Y-95900952D01*
X156662380Y-96472380D01*
X156662380Y-95853333D01*
X157932380Y-98020000D02*
X156932380Y-98020000D01*
X156932380Y-97781904D01*
X156980000Y-97639047D01*
X157075238Y-97543809D01*
X157170476Y-97496190D01*
X157360952Y-97448571D01*
X157503809Y-97448571D01*
X157694285Y-97496190D01*
X157789523Y-97543809D01*
X157884761Y-97639047D01*
X157932380Y-97781904D01*
X157932380Y-98020000D01*
X157646666Y-97067619D02*
X157646666Y-96591428D01*
X157932380Y-97162857D02*
X156932380Y-96829523D01*
X157932380Y-96496190D01*
X156932380Y-96305714D02*
X156932380Y-95734285D01*
X157932380Y-96020000D02*
X156932380Y-96020000D01*
X157646666Y-95448571D02*
X157646666Y-94972380D01*
X157932380Y-95543809D02*
X156932380Y-95210476D01*
X157932380Y-94877142D01*
%TO.C,J3*%
X155572380Y-67643333D02*
X156286666Y-67643333D01*
X156429523Y-67690952D01*
X156524761Y-67786190D01*
X156572380Y-67929047D01*
X156572380Y-68024285D01*
X155572380Y-67262380D02*
X155572380Y-66643333D01*
X155953333Y-66976666D01*
X155953333Y-66833809D01*
X156000952Y-66738571D01*
X156048571Y-66690952D01*
X156143809Y-66643333D01*
X156381904Y-66643333D01*
X156477142Y-66690952D01*
X156524761Y-66738571D01*
X156572380Y-66833809D01*
X156572380Y-67119523D01*
X156524761Y-67214761D01*
X156477142Y-67262380D01*
X156980000Y-68071904D02*
X156932380Y-68167142D01*
X156932380Y-68310000D01*
X156980000Y-68452857D01*
X157075238Y-68548095D01*
X157170476Y-68595714D01*
X157360952Y-68643333D01*
X157503809Y-68643333D01*
X157694285Y-68595714D01*
X157789523Y-68548095D01*
X157884761Y-68452857D01*
X157932380Y-68310000D01*
X157932380Y-68214761D01*
X157884761Y-68071904D01*
X157837142Y-68024285D01*
X157503809Y-68024285D01*
X157503809Y-68214761D01*
X157932380Y-67595714D02*
X156932380Y-67595714D01*
X157932380Y-67024285D01*
X156932380Y-67024285D01*
X157932380Y-66548095D02*
X156932380Y-66548095D01*
X156932380Y-66310000D01*
X156980000Y-66167142D01*
X157075238Y-66071904D01*
X157170476Y-66024285D01*
X157360952Y-65976666D01*
X157503809Y-65976666D01*
X157694285Y-66024285D01*
X157789523Y-66071904D01*
X157884761Y-66167142D01*
X157932380Y-66310000D01*
X157932380Y-66548095D01*
%TO.C,J1*%
X160956666Y-49857380D02*
X160956666Y-50571666D01*
X160909047Y-50714523D01*
X160813809Y-50809761D01*
X160670952Y-50857380D01*
X160575714Y-50857380D01*
X161956666Y-50857380D02*
X161385238Y-50857380D01*
X161670952Y-50857380D02*
X161670952Y-49857380D01*
X161575714Y-50000238D01*
X161480476Y-50095476D01*
X161385238Y-50143095D01*
X159956666Y-51522380D02*
X160290000Y-52522380D01*
X160623333Y-51522380D01*
X160956666Y-52522380D02*
X160956666Y-51522380D01*
X161194761Y-51522380D01*
X161337619Y-51570000D01*
X161432857Y-51665238D01*
X161480476Y-51760476D01*
X161528095Y-51950952D01*
X161528095Y-52093809D01*
X161480476Y-52284285D01*
X161432857Y-52379523D01*
X161337619Y-52474761D01*
X161194761Y-52522380D01*
X160956666Y-52522380D01*
X161956666Y-52522380D02*
X161956666Y-51522380D01*
X162194761Y-51522380D01*
X162337619Y-51570000D01*
X162432857Y-51665238D01*
X162480476Y-51760476D01*
X162528095Y-51950952D01*
X162528095Y-52093809D01*
X162480476Y-52284285D01*
X162432857Y-52379523D01*
X162337619Y-52474761D01*
X162194761Y-52522380D01*
X161956666Y-52522380D01*
%TO.C,R3*%
X161778333Y-83142380D02*
X161445000Y-82666190D01*
X161206904Y-83142380D02*
X161206904Y-82142380D01*
X161587857Y-82142380D01*
X161683095Y-82190000D01*
X161730714Y-82237619D01*
X161778333Y-82332857D01*
X161778333Y-82475714D01*
X161730714Y-82570952D01*
X161683095Y-82618571D01*
X161587857Y-82666190D01*
X161206904Y-82666190D01*
X162111666Y-82142380D02*
X162730714Y-82142380D01*
X162397380Y-82523333D01*
X162540238Y-82523333D01*
X162635476Y-82570952D01*
X162683095Y-82618571D01*
X162730714Y-82713809D01*
X162730714Y-82951904D01*
X162683095Y-83047142D01*
X162635476Y-83094761D01*
X162540238Y-83142380D01*
X162254523Y-83142380D01*
X162159285Y-83094761D01*
X162111666Y-83047142D01*
X160778333Y-86977619D02*
X160825952Y-86930000D01*
X160921190Y-86882380D01*
X161159285Y-86882380D01*
X161254523Y-86930000D01*
X161302142Y-86977619D01*
X161349761Y-87072857D01*
X161349761Y-87168095D01*
X161302142Y-87310952D01*
X160730714Y-87882380D01*
X161349761Y-87882380D01*
X161778333Y-87882380D02*
X161778333Y-86882380D01*
X161873571Y-87501428D02*
X162159285Y-87882380D01*
X162159285Y-87215714D02*
X161778333Y-87596666D01*
X162492619Y-86882380D02*
X163159285Y-86882380D01*
X162730714Y-87882380D01*
D11*
%TO.C,R5*%
X157905000Y-100300000D02*
X158675000Y-100300000D01*
X158675000Y-98930000D02*
X158675000Y-101670000D01*
X165985000Y-100300000D02*
X165215000Y-100300000D01*
X165215000Y-101670000D02*
X165215000Y-98930000D01*
X158675000Y-101670000D02*
X165215000Y-101670000D01*
X165215000Y-98930000D02*
X158675000Y-98930000D01*
%TO.C,R2*%
X165985000Y-77440000D02*
X165215000Y-77440000D01*
X158675000Y-78810000D02*
X165215000Y-78810000D01*
X165215000Y-76070000D02*
X158675000Y-76070000D01*
X165215000Y-78810000D02*
X165215000Y-76070000D01*
X158675000Y-76070000D02*
X158675000Y-78810000D01*
X157905000Y-77440000D02*
X158675000Y-77440000D01*
%TO.C,R4*%
X157905000Y-92680000D02*
X158675000Y-92680000D01*
X158675000Y-94050000D02*
X165215000Y-94050000D01*
X158675000Y-91310000D02*
X158675000Y-94050000D01*
X165985000Y-92680000D02*
X165215000Y-92680000D01*
X165215000Y-91310000D02*
X158675000Y-91310000D01*
X165215000Y-94050000D02*
X165215000Y-91310000D01*
%TO.C,R1*%
X158675000Y-69720000D02*
X158675000Y-72460000D01*
X165215000Y-69720000D02*
X158675000Y-69720000D01*
X157905000Y-71090000D02*
X158675000Y-71090000D01*
X158675000Y-72460000D02*
X165215000Y-72460000D01*
X165985000Y-71090000D02*
X165215000Y-71090000D01*
X165215000Y-72460000D02*
X165215000Y-69720000D01*
%TO.C,R6*%
X157905000Y-107920000D02*
X158675000Y-107920000D01*
X158675000Y-106550000D02*
X158675000Y-109290000D01*
X165215000Y-109290000D02*
X165215000Y-106550000D01*
X165215000Y-106550000D02*
X158675000Y-106550000D01*
X158675000Y-109290000D02*
X165215000Y-109290000D01*
X165985000Y-107920000D02*
X165215000Y-107920000D01*
%TO.C,C2*%
X160620000Y-63322380D02*
X167080000Y-63322380D01*
X164890000Y-62481380D02*
X166948000Y-62481380D01*
X161626000Y-61041380D02*
X166074000Y-61041380D01*
X164890000Y-61281380D02*
X166300000Y-61281380D01*
X161272000Y-61441380D02*
X162810000Y-61441380D01*
X160974000Y-61921380D02*
X162810000Y-61921380D01*
X164890000Y-62041380D02*
X166784000Y-62041380D01*
X160635000Y-63082380D02*
X162810000Y-63082380D01*
X161507000Y-61161380D02*
X162810000Y-61161380D01*
X160789000Y-62361380D02*
X162810000Y-62361380D01*
X161038000Y-61801380D02*
X162810000Y-61801380D01*
X164890000Y-62802380D02*
X167025000Y-62802380D01*
X163217000Y-60201380D02*
X164483000Y-60201380D01*
X164890000Y-62601380D02*
X166981000Y-62601380D01*
X160620000Y-63362380D02*
X167080000Y-63362380D01*
X164890000Y-63042380D02*
X167061000Y-63042380D01*
X164890000Y-61761380D02*
X166640000Y-61761380D01*
X164890000Y-62441380D02*
X166936000Y-62441380D01*
X160675000Y-62802380D02*
X162810000Y-62802380D01*
X161214000Y-61521380D02*
X162810000Y-61521380D01*
X163448000Y-60161380D02*
X164252000Y-60161380D01*
X160668000Y-62842380D02*
X162810000Y-62842380D01*
X161713000Y-60961380D02*
X165987000Y-60961380D01*
X161334000Y-61361380D02*
X162810000Y-61361380D01*
X164890000Y-62001380D02*
X166766000Y-62001380D01*
X160764000Y-62441380D02*
X162810000Y-62441380D01*
X161758000Y-60921380D02*
X165942000Y-60921380D01*
X164890000Y-63122380D02*
X167068000Y-63122380D01*
X160620000Y-63402380D02*
X167080000Y-63402380D01*
X164890000Y-62882380D02*
X167039000Y-62882380D01*
X162685000Y-60361380D02*
X165015000Y-60361380D01*
X161400000Y-61281380D02*
X162810000Y-61281380D01*
X160691000Y-62722380D02*
X162810000Y-62722380D01*
X164890000Y-61601380D02*
X166540000Y-61601380D01*
X164890000Y-61481380D02*
X166457000Y-61481380D01*
X160934000Y-62001380D02*
X162810000Y-62001380D01*
X160848000Y-62201380D02*
X162810000Y-62201380D01*
X164890000Y-61361380D02*
X166366000Y-61361380D01*
X160864000Y-62161380D02*
X162810000Y-62161380D01*
X161186000Y-61561380D02*
X162810000Y-61561380D01*
X160740000Y-62521380D02*
X162810000Y-62521380D01*
X162910000Y-60281380D02*
X164790000Y-60281380D01*
X162418000Y-60481380D02*
X165282000Y-60481380D01*
X164890000Y-62762380D02*
X167017000Y-62762380D01*
X160994000Y-61881380D02*
X162810000Y-61881380D01*
X164890000Y-62321380D02*
X166897000Y-62321380D01*
X164890000Y-61921380D02*
X166726000Y-61921380D01*
X164890000Y-61561380D02*
X166514000Y-61561380D01*
X164890000Y-61961380D02*
X166746000Y-61961380D01*
X160709000Y-62641380D02*
X162810000Y-62641380D01*
X164890000Y-61721380D02*
X166616000Y-61721380D01*
X162200000Y-60601380D02*
X165500000Y-60601380D01*
X164890000Y-61881380D02*
X166706000Y-61881380D01*
X161302000Y-61401380D02*
X162810000Y-61401380D01*
X160623000Y-63242380D02*
X167077000Y-63242380D01*
X164890000Y-62641380D02*
X166991000Y-62641380D01*
X164890000Y-61641380D02*
X166566000Y-61641380D01*
X161960000Y-60761380D02*
X165740000Y-60761380D01*
X164890000Y-62962380D02*
X167051000Y-62962380D01*
X164890000Y-62521380D02*
X166960000Y-62521380D01*
X161806000Y-60881380D02*
X165894000Y-60881380D01*
X161434000Y-61241380D02*
X162810000Y-61241380D01*
X160817000Y-62281380D02*
X162810000Y-62281380D01*
X160803000Y-62321380D02*
X162810000Y-62321380D01*
X160649000Y-62962380D02*
X162810000Y-62962380D01*
X164890000Y-62401380D02*
X166924000Y-62401380D01*
X162136000Y-60641380D02*
X165564000Y-60641380D01*
X160644000Y-63002380D02*
X162810000Y-63002380D01*
X164890000Y-63082380D02*
X167065000Y-63082380D01*
X164890000Y-62722380D02*
X167009000Y-62722380D01*
X161906000Y-60801380D02*
X165794000Y-60801380D01*
X162791000Y-60321380D02*
X164909000Y-60321380D01*
X163048000Y-60241380D02*
X164652000Y-60241380D01*
X164890000Y-61121380D02*
X166155000Y-61121380D01*
X164890000Y-62681380D02*
X167000000Y-62681380D01*
X164890000Y-61681380D02*
X166592000Y-61681380D01*
X164890000Y-61161380D02*
X166193000Y-61161380D01*
X164890000Y-62281380D02*
X166883000Y-62281380D01*
X160622000Y-63282380D02*
X167078000Y-63282380D01*
X160752000Y-62481380D02*
X162810000Y-62481380D01*
X160639000Y-63042380D02*
X162810000Y-63042380D01*
X164890000Y-62922380D02*
X167045000Y-62922380D01*
X164890000Y-62241380D02*
X166868000Y-62241380D01*
X164890000Y-62121380D02*
X166820000Y-62121380D01*
X164890000Y-62361380D02*
X166911000Y-62361380D01*
X164890000Y-61521380D02*
X166486000Y-61521380D01*
X164890000Y-61841380D02*
X166684000Y-61841380D01*
X162588000Y-60401380D02*
X165112000Y-60401380D01*
X161084000Y-61721380D02*
X162810000Y-61721380D01*
X164890000Y-61241380D02*
X166266000Y-61241380D01*
X160700000Y-62681380D02*
X162810000Y-62681380D01*
X161585000Y-61081380D02*
X166115000Y-61081380D01*
X164890000Y-61321380D02*
X166334000Y-61321380D01*
X164890000Y-63002380D02*
X167056000Y-63002380D01*
X160632000Y-63122380D02*
X162810000Y-63122380D01*
X161108000Y-61681380D02*
X162810000Y-61681380D01*
X164890000Y-61401380D02*
X166398000Y-61401380D01*
X160880000Y-62121380D02*
X162810000Y-62121380D01*
X161016000Y-61841380D02*
X162810000Y-61841380D01*
X162269000Y-60561380D02*
X165431000Y-60561380D01*
X161470000Y-61201380D02*
X162810000Y-61201380D01*
X161545000Y-61121380D02*
X162810000Y-61121380D01*
X160916000Y-62041380D02*
X162810000Y-62041380D01*
X161366000Y-61321380D02*
X162810000Y-61321380D01*
X160729000Y-62561380D02*
X162810000Y-62561380D01*
X160628000Y-63162380D02*
X162810000Y-63162380D01*
X161160000Y-61601380D02*
X162810000Y-61601380D01*
X164890000Y-62561380D02*
X166971000Y-62561380D01*
X164890000Y-61201380D02*
X166230000Y-61201380D01*
X160661000Y-62882380D02*
X162810000Y-62882380D01*
X162016000Y-60721380D02*
X165684000Y-60721380D01*
X161855000Y-60841380D02*
X165845000Y-60841380D01*
X160683000Y-62762380D02*
X162810000Y-62762380D01*
X161134000Y-61641380D02*
X162810000Y-61641380D01*
X160626000Y-63202380D02*
X167074000Y-63202380D01*
X161243000Y-61481380D02*
X162810000Y-61481380D01*
X164890000Y-62842380D02*
X167032000Y-62842380D01*
X160655000Y-62922380D02*
X162810000Y-62922380D01*
X164890000Y-62161380D02*
X166836000Y-62161380D01*
X162500000Y-60441380D02*
X165200000Y-60441380D01*
X164890000Y-61801380D02*
X166662000Y-61801380D01*
X160898000Y-62081380D02*
X162810000Y-62081380D01*
X161060000Y-61761380D02*
X162810000Y-61761380D01*
X164890000Y-61441380D02*
X166428000Y-61441380D01*
X162074000Y-60681380D02*
X165626000Y-60681380D01*
X162341000Y-60521380D02*
X165359000Y-60521380D01*
X162011000Y-66902621D02*
X162011000Y-66272621D01*
X160832000Y-62241380D02*
X162810000Y-62241380D01*
X164890000Y-62081380D02*
X166802000Y-62081380D01*
X164890000Y-62201380D02*
X166852000Y-62201380D01*
X160776000Y-62401380D02*
X162810000Y-62401380D01*
X160719000Y-62601380D02*
X162810000Y-62601380D01*
X161668000Y-61001380D02*
X166032000Y-61001380D01*
X161696000Y-66587621D02*
X162326000Y-66587621D01*
X164890000Y-63162380D02*
X167072000Y-63162380D01*
X160954000Y-61961380D02*
X162810000Y-61961380D01*
X167120000Y-63402380D02*
G75*
G03*
X167120000Y-63402380I-3270000J0D01*
G01*
%TO.C,C1*%
X171874000Y-58706000D02*
X171874000Y-56890000D01*
X172875000Y-54810000D02*
X172875000Y-52661000D01*
X173075000Y-54810000D02*
X173075000Y-52635000D01*
X171474000Y-58457000D02*
X171474000Y-56890000D01*
X176895241Y-57689000D02*
X176265241Y-57689000D01*
X172274000Y-58883000D02*
X172274000Y-56890000D01*
X171114000Y-58155000D02*
X171114000Y-56890000D01*
X170474000Y-57282000D02*
X170474000Y-54418000D01*
X171634000Y-58566000D02*
X171634000Y-56890000D01*
X171354000Y-54810000D02*
X171354000Y-53334000D01*
X172634000Y-58991000D02*
X172634000Y-56890000D01*
X171154000Y-58193000D02*
X171154000Y-56890000D01*
X171514000Y-58486000D02*
X171514000Y-56890000D01*
X171274000Y-54810000D02*
X171274000Y-53400000D01*
X172474000Y-58948000D02*
X172474000Y-56890000D01*
X171434000Y-54810000D02*
X171434000Y-53272000D01*
X171234000Y-54810000D02*
X171234000Y-53434000D01*
X172394000Y-58924000D02*
X172394000Y-56890000D01*
X172314000Y-54810000D02*
X172314000Y-52803000D01*
X172394000Y-54810000D02*
X172394000Y-52776000D01*
X173035000Y-54810000D02*
X173035000Y-52639000D01*
X170514000Y-57359000D02*
X170514000Y-54341000D01*
X171594000Y-54810000D02*
X171594000Y-53160000D01*
X173355000Y-59080000D02*
X173355000Y-52620000D01*
X171714000Y-54810000D02*
X171714000Y-53084000D01*
X172234000Y-58868000D02*
X172234000Y-56890000D01*
X172354000Y-54810000D02*
X172354000Y-52789000D01*
X172154000Y-58836000D02*
X172154000Y-56890000D01*
X170394000Y-57112000D02*
X170394000Y-54588000D01*
X172554000Y-58971000D02*
X172554000Y-56890000D01*
X170554000Y-57431000D02*
X170554000Y-54269000D01*
X171034000Y-58074000D02*
X171034000Y-53626000D01*
X171354000Y-58366000D02*
X171354000Y-56890000D01*
X172634000Y-54810000D02*
X172634000Y-52709000D01*
X172554000Y-54810000D02*
X172554000Y-52729000D01*
X172274000Y-54810000D02*
X172274000Y-52817000D01*
X171954000Y-58746000D02*
X171954000Y-56890000D01*
X173075000Y-59065000D02*
X173075000Y-56890000D01*
X172835000Y-59032000D02*
X172835000Y-56890000D01*
X170354000Y-57015000D02*
X170354000Y-54685000D01*
X172755000Y-54810000D02*
X172755000Y-52683000D01*
X173155000Y-54810000D02*
X173155000Y-52628000D01*
X170914000Y-57942000D02*
X170914000Y-53758000D01*
X172354000Y-58911000D02*
X172354000Y-56890000D01*
X171194000Y-58230000D02*
X171194000Y-56890000D01*
X170314000Y-56909000D02*
X170314000Y-54791000D01*
X171274000Y-58300000D02*
X171274000Y-56890000D01*
X172835000Y-54810000D02*
X172835000Y-52668000D01*
X171914000Y-54810000D02*
X171914000Y-52974000D01*
X171834000Y-54810000D02*
X171834000Y-53016000D01*
X172074000Y-54810000D02*
X172074000Y-52898000D01*
X173115000Y-54810000D02*
X173115000Y-52632000D01*
X170634000Y-57564000D02*
X170634000Y-54136000D01*
X170194000Y-56483000D02*
X170194000Y-55217000D01*
X172434000Y-54810000D02*
X172434000Y-52764000D01*
X172995000Y-59056000D02*
X172995000Y-56890000D01*
X172915000Y-54810000D02*
X172915000Y-52655000D01*
X171434000Y-58428000D02*
X171434000Y-56890000D01*
X173235000Y-59077000D02*
X173235000Y-52623000D01*
X172594000Y-58981000D02*
X172594000Y-56890000D01*
X171794000Y-58662000D02*
X171794000Y-56890000D01*
X170954000Y-57987000D02*
X170954000Y-53713000D01*
X172194000Y-54810000D02*
X172194000Y-52848000D01*
X171674000Y-54810000D02*
X171674000Y-53108000D01*
X172955000Y-59051000D02*
X172955000Y-56890000D01*
X172755000Y-59017000D02*
X172755000Y-56890000D01*
X173115000Y-59068000D02*
X173115000Y-56890000D01*
X172995000Y-54810000D02*
X172995000Y-52644000D01*
X173035000Y-59061000D02*
X173035000Y-56890000D01*
X171314000Y-54810000D02*
X171314000Y-53366000D01*
X170154000Y-56252000D02*
X170154000Y-55448000D01*
X170994000Y-58032000D02*
X170994000Y-53668000D01*
X172234000Y-54810000D02*
X172234000Y-52832000D01*
X171834000Y-58684000D02*
X171834000Y-56890000D01*
X172034000Y-54810000D02*
X172034000Y-52916000D01*
X170754000Y-57740000D02*
X170754000Y-53960000D01*
X176580241Y-58004000D02*
X176580241Y-57374000D01*
X172594000Y-54810000D02*
X172594000Y-52719000D01*
X171754000Y-58640000D02*
X171754000Y-56890000D01*
X172074000Y-58802000D02*
X172074000Y-56890000D01*
X172514000Y-54810000D02*
X172514000Y-52740000D01*
X172955000Y-54810000D02*
X172955000Y-52649000D01*
X172795000Y-54810000D02*
X172795000Y-52675000D01*
X171914000Y-58726000D02*
X171914000Y-56890000D01*
X171714000Y-58616000D02*
X171714000Y-56890000D01*
X172114000Y-54810000D02*
X172114000Y-52880000D01*
X172514000Y-58960000D02*
X172514000Y-56890000D01*
X172114000Y-58820000D02*
X172114000Y-56890000D01*
X171554000Y-58514000D02*
X171554000Y-56890000D01*
X170234000Y-56652000D02*
X170234000Y-55048000D01*
X172154000Y-54810000D02*
X172154000Y-52864000D01*
X170434000Y-57200000D02*
X170434000Y-54500000D01*
X172434000Y-58936000D02*
X172434000Y-56890000D01*
X173395000Y-59080000D02*
X173395000Y-52620000D01*
X171594000Y-58540000D02*
X171594000Y-56890000D01*
X171794000Y-54810000D02*
X171794000Y-53038000D01*
X171474000Y-54810000D02*
X171474000Y-53243000D01*
X171874000Y-54810000D02*
X171874000Y-52994000D01*
X172915000Y-59045000D02*
X172915000Y-56890000D01*
X172715000Y-59009000D02*
X172715000Y-56890000D01*
X170674000Y-57626000D02*
X170674000Y-54074000D01*
X173275000Y-59078000D02*
X173275000Y-52622000D01*
X171994000Y-58766000D02*
X171994000Y-56890000D01*
X171674000Y-58592000D02*
X171674000Y-56890000D01*
X170834000Y-57845000D02*
X170834000Y-53855000D01*
X171194000Y-54810000D02*
X171194000Y-53470000D01*
X172875000Y-59039000D02*
X172875000Y-56890000D01*
X172674000Y-59000000D02*
X172674000Y-56890000D01*
X172474000Y-54810000D02*
X172474000Y-52752000D01*
X171154000Y-54810000D02*
X171154000Y-53507000D01*
X171954000Y-54810000D02*
X171954000Y-52954000D01*
X172034000Y-58784000D02*
X172034000Y-56890000D01*
X171994000Y-54810000D02*
X171994000Y-52934000D01*
X171554000Y-54810000D02*
X171554000Y-53186000D01*
X173155000Y-59072000D02*
X173155000Y-56890000D01*
X171074000Y-58115000D02*
X171074000Y-53585000D01*
X172314000Y-58897000D02*
X172314000Y-56890000D01*
X172194000Y-58852000D02*
X172194000Y-56890000D01*
X171114000Y-54810000D02*
X171114000Y-53545000D01*
X173315000Y-59080000D02*
X173315000Y-52620000D01*
X171234000Y-58266000D02*
X171234000Y-56890000D01*
X170794000Y-57794000D02*
X170794000Y-53906000D01*
X171394000Y-58398000D02*
X171394000Y-56890000D01*
X171394000Y-54810000D02*
X171394000Y-53302000D01*
X172674000Y-54810000D02*
X172674000Y-52700000D01*
X171514000Y-54810000D02*
X171514000Y-53214000D01*
X170714000Y-57684000D02*
X170714000Y-54016000D01*
X170274000Y-56790000D02*
X170274000Y-54910000D01*
X172795000Y-59025000D02*
X172795000Y-56890000D01*
X170874000Y-57894000D02*
X170874000Y-53806000D01*
X171754000Y-54810000D02*
X171754000Y-53060000D01*
X171314000Y-58334000D02*
X171314000Y-56890000D01*
X170594000Y-57500000D02*
X170594000Y-54200000D01*
X172715000Y-54810000D02*
X172715000Y-52691000D01*
X171634000Y-54810000D02*
X171634000Y-53134000D01*
X173195000Y-59074000D02*
X173195000Y-52626000D01*
X176665000Y-55850000D02*
G75*
G03*
X176665000Y-55850000I-3270000J0D01*
G01*
%TO.C,J2*%
X148837000Y-110533000D02*
X148791000Y-110486000D01*
X147260000Y-83760000D02*
X147260000Y-114360000D01*
X155121000Y-114360000D02*
X145200000Y-114360000D01*
X148621000Y-90406000D02*
X148586000Y-90371000D01*
X150929000Y-97795000D02*
X150883000Y-97748000D01*
X150929000Y-102875000D02*
X150883000Y-102828000D01*
X150929000Y-113035000D02*
X150883000Y-112988000D01*
X148621000Y-105646000D02*
X148586000Y-105611000D01*
X148621000Y-95486000D02*
X148586000Y-95451000D01*
X148621000Y-110726000D02*
X148586000Y-110691000D01*
X145700000Y-83520000D02*
X144960000Y-83520000D01*
X151135000Y-112830000D02*
X151099000Y-112795000D01*
X155121000Y-83760000D02*
X155121000Y-114360000D01*
X145200000Y-83760000D02*
X145200000Y-114360000D01*
X144960000Y-83520000D02*
X144960000Y-84020000D01*
X148837000Y-100373000D02*
X148791000Y-100326000D01*
X155121000Y-83760000D02*
X145200000Y-83760000D01*
X151135000Y-97590000D02*
X151099000Y-97555000D01*
X150929000Y-107955000D02*
X150883000Y-107908000D01*
X148837000Y-95293000D02*
X148791000Y-95246000D01*
X145760000Y-83760000D02*
X145760000Y-114360000D01*
X151135000Y-92510000D02*
X151099000Y-92475000D01*
X152161000Y-83760000D02*
X152161000Y-114360000D01*
X151135000Y-107750000D02*
X151099000Y-107715000D01*
X150929000Y-92715000D02*
X150883000Y-92668000D01*
X151135000Y-102670000D02*
X151099000Y-102635000D01*
X148837000Y-105453000D02*
X148791000Y-105406000D01*
X148837000Y-90213000D02*
X148791000Y-90166000D01*
X148621000Y-100566000D02*
X148586000Y-100531000D01*
X148325000Y-85676000D02*
G75*
G03*
X148179747Y-86388805I1535001J-683999D01*
G01*
X151395000Y-87044000D02*
G75*
G03*
X151395427Y-85676958I-1534993J684001D01*
G01*
X150544000Y-84825000D02*
G75*
G03*
X149176958Y-84824573I-684001J-1534993D01*
G01*
X149176000Y-87895000D02*
G75*
G03*
X150543042Y-87895427I684001J1534993D01*
G01*
X148180000Y-86360000D02*
G75*
G03*
X148325244Y-87043318I1679992J-1D01*
G01*
X151540000Y-111760000D02*
G75*
G03*
X151540000Y-111760000I-1680000J0D01*
G01*
X151540000Y-101600000D02*
G75*
G03*
X151540000Y-101600000I-1680000J0D01*
G01*
X151540000Y-106680000D02*
G75*
G03*
X151540000Y-106680000I-1680000J0D01*
G01*
X151540000Y-96520000D02*
G75*
G03*
X151540000Y-96520000I-1680000J0D01*
G01*
X151540000Y-91440000D02*
G75*
G03*
X151540000Y-91440000I-1680000J0D01*
G01*
%TO.C,J3*%
X150929000Y-66045000D02*
X150883000Y-65998000D01*
X155121000Y-52010000D02*
X145200000Y-52010000D01*
X148837000Y-63543000D02*
X148791000Y-63496000D01*
X155121000Y-52010000D02*
X155121000Y-82610000D01*
X148621000Y-58656000D02*
X148586000Y-58621000D01*
X151135000Y-76000000D02*
X151099000Y-75965000D01*
X150929000Y-76205000D02*
X150883000Y-76158000D01*
X148621000Y-68816000D02*
X148586000Y-68781000D01*
X152161000Y-52010000D02*
X152161000Y-82610000D01*
X155121000Y-82610000D02*
X145200000Y-82610000D01*
X148837000Y-68623000D02*
X148791000Y-68576000D01*
X150929000Y-81285000D02*
X150883000Y-81238000D01*
X150929000Y-71125000D02*
X150883000Y-71078000D01*
X148621000Y-63736000D02*
X148586000Y-63701000D01*
X151135000Y-60760000D02*
X151099000Y-60725000D01*
X151135000Y-70920000D02*
X151099000Y-70885000D01*
X151135000Y-81080000D02*
X151099000Y-81045000D01*
X144960000Y-51770000D02*
X144960000Y-52270000D01*
X150929000Y-60965000D02*
X150883000Y-60918000D01*
X148621000Y-78976000D02*
X148586000Y-78941000D01*
X148837000Y-73703000D02*
X148791000Y-73656000D01*
X148837000Y-78783000D02*
X148791000Y-78736000D01*
X145760000Y-52010000D02*
X145760000Y-82610000D01*
X148837000Y-58463000D02*
X148791000Y-58416000D01*
X145700000Y-51770000D02*
X144960000Y-51770000D01*
X151135000Y-65840000D02*
X151099000Y-65805000D01*
X148621000Y-73896000D02*
X148586000Y-73861000D01*
X147260000Y-52010000D02*
X147260000Y-82610000D01*
X145200000Y-52010000D02*
X145200000Y-82610000D01*
X151395000Y-55294000D02*
G75*
G03*
X151395427Y-53926958I-1534993J684001D01*
G01*
X149176000Y-56145000D02*
G75*
G03*
X150543042Y-56145427I684001J1534993D01*
G01*
X150544000Y-53075000D02*
G75*
G03*
X149176958Y-53074573I-684001J-1534993D01*
G01*
X148325000Y-53926000D02*
G75*
G03*
X148179747Y-54638805I1535001J-683999D01*
G01*
X148180000Y-54610000D02*
G75*
G03*
X148325244Y-55293318I1679992J-1D01*
G01*
X151540000Y-59690000D02*
G75*
G03*
X151540000Y-59690000I-1680000J0D01*
G01*
X151540000Y-74930000D02*
G75*
G03*
X151540000Y-74930000I-1680000J0D01*
G01*
X151540000Y-80010000D02*
G75*
G03*
X151540000Y-80010000I-1680000J0D01*
G01*
X151540000Y-64770000D02*
G75*
G03*
X151540000Y-64770000I-1680000J0D01*
G01*
X151540000Y-69850000D02*
G75*
G03*
X151540000Y-69850000I-1680000J0D01*
G01*
%TO.C,J1*%
X170137000Y-43122000D02*
X170184000Y-43076000D01*
X157680000Y-45420000D02*
X157715000Y-45384000D01*
X176590000Y-40045000D02*
X145990000Y-40045000D01*
X162555000Y-45214000D02*
X162602000Y-45168000D01*
X176830000Y-39245000D02*
X176330000Y-39245000D01*
X145990000Y-49406000D02*
X145990000Y-39485000D01*
X157475000Y-45214000D02*
X157522000Y-45168000D01*
X149817000Y-43122000D02*
X149864000Y-43076000D01*
X159977000Y-43122000D02*
X160024000Y-43076000D01*
X176830000Y-39985000D02*
X176830000Y-39245000D01*
X165057000Y-43122000D02*
X165104000Y-43076000D01*
X154704000Y-42906000D02*
X154739000Y-42871000D01*
X176590000Y-49406000D02*
X145990000Y-49406000D01*
X164864000Y-42906000D02*
X164899000Y-42871000D01*
X152600000Y-45420000D02*
X152635000Y-45384000D01*
X167635000Y-45214000D02*
X167682000Y-45168000D01*
X159784000Y-42906000D02*
X159819000Y-42871000D01*
X147315000Y-45214000D02*
X147362000Y-45168000D01*
X169944000Y-42906000D02*
X169979000Y-42871000D01*
X176590000Y-49406000D02*
X176590000Y-39485000D01*
X176590000Y-41545000D02*
X145990000Y-41545000D01*
X154897000Y-43122000D02*
X154944000Y-43076000D01*
X152395000Y-45214000D02*
X152442000Y-45168000D01*
X147520000Y-45420000D02*
X147555000Y-45384000D01*
X176590000Y-39485000D02*
X145990000Y-39485000D01*
X176590000Y-46446000D02*
X145990000Y-46446000D01*
X162760000Y-45420000D02*
X162795000Y-45384000D01*
X149624000Y-42906000D02*
X149659000Y-42871000D01*
X167840000Y-45420000D02*
X167875000Y-45384000D01*
X175525000Y-44829000D02*
G75*
G03*
X175525427Y-43461958I-1534993J684001D01*
G01*
X174674000Y-42610000D02*
G75*
G03*
X173961195Y-42464747I-683999J-1535001D01*
G01*
X172455000Y-43461000D02*
G75*
G03*
X172454573Y-44828042I1534993J-684001D01*
G01*
X173990000Y-42465000D02*
G75*
G03*
X173306682Y-42610244I-1J-1679992D01*
G01*
X173306000Y-45680000D02*
G75*
G03*
X174673042Y-45680427I684001J1534993D01*
G01*
X170590000Y-44145000D02*
G75*
G03*
X170590000Y-44145000I-1680000J0D01*
G01*
X160430000Y-44145000D02*
G75*
G03*
X160430000Y-44145000I-1680000J0D01*
G01*
X155350000Y-44145000D02*
G75*
G03*
X155350000Y-44145000I-1680000J0D01*
G01*
X165510000Y-44145000D02*
G75*
G03*
X165510000Y-44145000I-1680000J0D01*
G01*
X150270000Y-44145000D02*
G75*
G03*
X150270000Y-44145000I-1680000J0D01*
G01*
%TO.C,R3*%
X165215000Y-83690000D02*
X158675000Y-83690000D01*
X165985000Y-85060000D02*
X165215000Y-85060000D01*
X158675000Y-86430000D02*
X165215000Y-86430000D01*
X158675000Y-83690000D02*
X158675000Y-86430000D01*
X157905000Y-85060000D02*
X158675000Y-85060000D01*
X165215000Y-86430000D02*
X165215000Y-83690000D01*
%TD*%
M02*
